<svg 
 xmlns="http://www.w3.org/2000/svg"
 xmlns:xlink="http://www.w3.org/1999/xlink"
 width="12px" height="17px">
<defs>
<filter id="Filter_0">
    <feFlood flood-color="rgb(255, 90, 0)" flood-opacity="1" result="floodOut" />
    <feComposite operator="atop" in="floodOut" in2="SourceGraphic" result="compOut" />
    <feBlend mode="normal" in="compOut" in2="SourceGraphic" />
</filter>

</defs>
<g filter="url(#Filter_0)">
<path fill-rule="evenodd"  fill="rgb(0, 0, 0)"
 d="M11.497,8.498 C11.497,8.370 11.422,8.225 11.308,8.129 L2.505,0.656 C2.392,0.560 2.222,0.496 2.071,0.496 C1.920,0.496 1.750,0.560 1.636,0.656 L0.692,1.458 C0.579,1.554 0.503,1.699 0.503,1.827 C0.503,1.955 0.579,2.100 0.692,2.196 L8.116,8.498 L0.692,14.800 C0.579,14.897 0.503,15.041 0.503,15.169 C0.503,15.313 0.579,15.442 0.692,15.538 L1.636,16.340 C1.750,16.436 1.920,16.500 2.071,16.500 C2.222,16.500 2.392,16.436 2.505,16.340 L11.308,8.867 C11.422,8.771 11.497,8.627 11.497,8.498 Z"/>
</g>
</svg>