<?xml version="1.0" standalone="no"?>
<!DOCTYPE svg PUBLIC "-//W3C//DTD SVG 20010904//EN"
 "http://www.w3.org/TR/2001/REC-SVG-20010904/DTD/svg10.dtd">
<svg version="1.0" xmlns="http://www.w3.org/2000/svg"
 width="32.000000pt" height="24.000000pt" viewBox="0 0 32.000000 24.000000"
 preserveAspectRatio="xMidYMid meet">

<g transform="translate(0.000000,24.000000) scale(0.100000,-0.100000)"
fill="#000000" stroke="none">
<path d="M37 192 c-31 -32 -35 -41 -24 -50 10 -9 24 -1 62 38 46 47 48 50 24
50 -16 0 -39 -14 -62 -38z"/>
<path d="M102 177 c-37 -38 -51 -58 -46 -70 3 -9 9 -17 13 -17 4 0 38 32 76
70 69 69 69 70 39 70 -23 0 -42 -12 -82 -53z"/>
<path d="M164 149 c-64 -64 -76 -81 -64 -89 11 -7 33 9 92 67 43 43 74 80 70
83 -4 3 -9 8 -13 12 -3 4 -41 -29 -85 -73z"/>
<path d="M201 106 c-67 -68 -81 -96 -48 -96 20 0 160 147 153 159 -14 21 -32
10 -105 -63z"/>
</g>
</svg>
